<svg width="215" height="175" viewBox="0 0 215 175" fill="none" xmlns="http://www.w3.org/2000/svg">
<path d="M60.3012 36.815C60.3012 49.6769 18.5462 103.778 5.16348 103.778C-8.21924 103.778 11.8381 49.6769 11.8381 36.815C11.8381 23.9532 22.6869 13.5266 36.0696 13.5266C49.4523 13.5266 60.3012 23.9532 60.3012 36.815Z" fill="#FFA87B"/>
<path d="M110.109 36.2347C110.109 46.2517 127.96 58.6526 117.582 58.6526C107.204 58.6526 79.9287 36.6752 79.9287 26.6582C79.9287 16.6412 86.7454 0.467773 97.123 0.467773C107.501 0.467773 110.109 26.2177 110.109 36.2347Z" fill="#F35C6E"/>
<path d="M140.739 152.511C140.739 162.528 158.589 174.929 148.212 174.929C137.834 174.929 110.559 152.952 110.559 142.935C110.559 132.918 117.375 116.744 127.753 116.744C138.13 116.744 140.739 142.494 140.739 152.511Z" fill="#F35C6E"/>
<path d="M123.707 102.472C123.707 113.972 114.06 123.294 102.16 123.294C90.2599 123.294 80.6129 113.972 80.6129 102.472C80.6129 90.9728 66.0284 61.2642 77.9286 61.2642C89.8288 61.2642 123.707 90.9728 123.707 102.472Z" fill="#686EE2"/>
<path d="M214.581 50.7446C214.581 62.4845 198.115 58.7976 186.215 58.7976C174.314 58.7976 126.651 83.7416 126.651 72.0016C126.651 60.2617 181.134 29.4875 193.034 29.4875C204.934 29.4875 214.581 39.0046 214.581 50.7446Z" fill="#5C3E84"/>
</svg>
